<?xml version="1.0" encoding="UTF-8"?>
<svg width="394px" height="395px" viewBox="0 0 394 395" version="1.1" xmlns="http://www.w3.org/2000/svg" xmlns:xlink="http://www.w3.org/1999/xlink">
    <title>编组 34@1x</title>
    <g id="匠者研心社区网站20200730" stroke="none" stroke-width="1" fill="none" fill-rule="evenodd">
        <g id="编组-34" fill="#4B4B4B" fill-rule="nonzero">
            <g id="长箭头" transform="translate(0.000000, 189.145603)">
                <polygon id="路径" points="11.5882353 6.30485345 382.411765 6.30485345 382.411765 8.40647127 11.5882353 8.40647127 11.5882353 6.30485345"></polygon>
                <polygon id="路径" points="381.358289 4.21996209e-13 394 7.40570089 381.358289 15.0115558 381.358289 4.19987608e-13"></polygon>
                <polygon id="路径备份-3" transform="translate(6.320856, 7.505778) scale(-1, 1) translate(-6.320856, -7.505778) " points="0 2.00860128e-15 12.6417112 7.40570089 4.02739851e-15 15.0115558 4.02739851e-15 0"></polygon>
            </g>
            <g id="长箭头" transform="translate(197.000000, 197.026670) rotate(90.000000) translate(-197.000000, -197.026670) translate(0.000000, 189.145603)">
                <polygon id="路径" points="11.5882353 6.30485345 382.411765 6.30485345 382.411765 8.40647127 11.5882353 8.40647127 11.5882353 6.30485345"></polygon>
                <polygon id="路径" points="381.358289 4.21996209e-13 394 7.40570089 381.358289 15.0115558 381.358289 4.19987608e-13"></polygon>
                <polygon id="路径备份-3" transform="translate(6.320856, 7.505778) scale(-1, 1) translate(-6.320856, -7.505778) " points="0 2.00860128e-15 12.6417112 7.40570089 4.02739851e-15 15.0115558 4.02739851e-15 0"></polygon>
            </g>
        </g>
    </g>
</svg>